HIERARCHY
ROOT SimulationBone
{
	OFFSET 0.000000 0.000000 0.000000
	CHANNELS 6 Xposition Yposition Zposition Zrotation Yrotation Xrotation 
	JOINT Hips
	{
		OFFSET 0.000000 0.000000 0.000000
		CHANNELS 6 Xposition Yposition Zposition Zrotation Yrotation Xrotation 
		JOINT LeftUpLeg
		{
			OFFSET 0.103460 1.857825 10.548519
			CHANNELS 3 Zrotation Yrotation Xrotation
			JOINT LeftLeg
			{
				OFFSET 43.500008 -0.000019 0.000016
				CHANNELS 3 Zrotation Yrotation Xrotation
				JOINT LeftFoot
				{
					OFFSET 42.372192 0.000004 0.000011
					CHANNELS 3 Zrotation Yrotation Xrotation
					JOINT LeftToe
					{
						OFFSET 17.300001 0.000001 -0.000016
						CHANNELS 3 Zrotation Yrotation Xrotation
						End Site
						{
							OFFSET 0.000000 0.000000 0.000000
						}
					}
				}
			}
		}
		JOINT RightUpLeg
		{
			OFFSET 0.103460 1.857824 -10.548484
			CHANNELS 3 Zrotation Yrotation Xrotation
			JOINT RightLeg
			{
				OFFSET 43.500046 -0.000008 0.000031
				CHANNELS 3 Zrotation Yrotation Xrotation
				JOINT RightFoot
				{
					OFFSET 42.372261 0.000000 0.000010
					CHANNELS 3 Zrotation Yrotation Xrotation
					JOINT RightToe
					{
						OFFSET 17.299986 -0.000007 0.000010
						CHANNELS 3 Zrotation Yrotation Xrotation
						End Site
						{
							OFFSET 0.000000 0.000000 0.000000
						}
					}
				}
			}
		}
		JOINT Spine
		{
			OFFSET 6.901969 -2.603749 -0.000000
			CHANNELS 3 Zrotation Yrotation Xrotation
			JOINT Spine1
			{
				OFFSET 12.588099 0.000014 -0.000003
				CHANNELS 3 Zrotation Yrotation Xrotation
				JOINT Spine2
				{
					OFFSET 12.343207 0.000019 0.000011
					CHANNELS 3 Zrotation Yrotation Xrotation
					JOINT Neck
					{
						OFFSET 25.832890 -0.000025 -0.000002
						CHANNELS 3 Zrotation Yrotation Xrotation
						JOINT Head
						{
							OFFSET 11.766609 0.000013 -0.000004
							CHANNELS 3 Zrotation Yrotation Xrotation
							End Site
							{
								OFFSET 0.000000 0.000000 0.000000
							}
						}
					}
					JOINT LeftShoulder
					{
						OFFSET 19.745899 -1.480392 6.000105
						CHANNELS 3 Zrotation Yrotation Xrotation
						JOINT LeftArm
						{
							OFFSET 11.284097 -0.000017 -0.000023
							CHANNELS 3 Zrotation Yrotation Xrotation
							JOINT LeftForeArm
							{
								OFFSET 33.000065 -0.000020 0.000044
								CHANNELS 3 Zrotation Yrotation Xrotation
								JOINT LeftHand
								{
									OFFSET 25.200005 0.000023 0.000007
									CHANNELS 3 Zrotation Yrotation Xrotation
									End Site
									{
										OFFSET 0.000000 0.000000 0.000000
									}
								}
							}
						}
					}
					JOINT RightShoulder
					{
						OFFSET 19.746096 -1.480391 -6.000090
						CHANNELS 3 Zrotation Yrotation Xrotation
						JOINT RightArm
						{
							OFFSET 11.284126 -0.000026 -0.000012
							CHANNELS 3 Zrotation Yrotation Xrotation
							JOINT RightForeArm
							{
								OFFSET 33.000092 0.000010 0.000014
								CHANNELS 3 Zrotation Yrotation Xrotation
								JOINT RightHand
								{
									OFFSET 25.199760 0.000151 0.000418
									CHANNELS 3 Zrotation Yrotation Xrotation
									End Site
									{
										OFFSET 0.000000 0.000000 0.000000
									}
								}
							}
						}
					}
				}
			}
		}
	}
}
MOTION
Frames: 15
Frame Time: 0.016667
-5.176736 0.000000 539.570389 180.000000 -19.851906 180.000000 -7.744300 89.267616 -1.943489 79.597587 -1.933013 -178.523426 172.382090 -3.070802 163.849777 -29.237225 -0.978241 -7.311953 91.367494 3.155876 -12.395490 21.454555 0.003085 -0.000000 123.943603 16.018004 -159.736514 -61.680377 -4.694611 0.463321 77.809104 0.799724 3.979567 21.454560 -0.003108 -0.000017 8.347676 1.099880 -1.402834 6.656554 2.278284 -2.740787 6.338573 2.261832 -2.754486 21.518637 10.461372 -9.505245 -23.022047 3.098503 -11.369479 -108.348088 -87.213972 -73.582110 8.389582 42.926987 19.207531 -75.090921 -15.630891 2.749993 1.289377 -5.371959 39.158396 -173.249018 79.106111 8.344008 6.494335 -49.375631 -8.159521 -50.111772 11.201669 -1.530869 1.334826 9.707225 -3.264141 
-7.352518 0.000000 539.618255 180.000000 -20.919815 180.000000 -7.390466 88.409891 -2.275312 80.371528 -2.418407 -179.540530 175.010569 -3.228979 163.160710 -28.996407 -0.975228 -6.913883 92.926894 2.927751 -13.238738 21.454550 0.003092 0.000000 123.436525 16.902521 -159.575766 -57.921231 -4.257812 -0.076362 77.485279 1.289602 4.406757 21.454557 -0.003108 -0.000017 8.409430 1.111541 -1.543426 6.776932 2.311205 -3.019883 6.459011 2.293065 -3.033773 21.618097 11.500392 -9.474534 -22.923466 2.434844 -11.043302 -107.537131 -87.517525 -74.373407 6.425198 42.577536 17.833449 -75.256011 -15.854427 2.772039 1.960292 -5.562520 39.494942 -170.855021 78.232021 10.776623 7.846528 -48.603122 -8.131147 -50.843550 11.238555 -1.556560 1.238591 9.413914 -1.897173 
-9.584201 0.000000 539.648027 180.000000 -21.802251 180.000000 -7.072253 87.487572 -2.619105 81.266522 -2.878969 179.769069 177.959964 -3.212905 162.337136 -28.233593 -0.663939 -6.422405 94.511280 2.659793 -14.044792 21.454550 0.003092 -0.000000 123.344432 17.742403 -159.115404 -53.546264 -4.021285 -0.706698 76.895853 1.610189 3.906697 21.454558 -0.003108 -0.000017 8.493010 1.125783 -1.705661 6.940349 2.351467 -3.341573 6.622525 2.331388 -3.355695 21.953010 12.110379 -9.345020 -23.149936 2.106755 -10.806600 -106.286184 -87.829004 -75.604032 4.196072 42.260831 16.630095 -75.100852 -16.174569 2.788899 1.865308 -5.780473 39.273030 -170.075930 77.763338 11.569090 9.695666 -48.216729 -8.464316 -51.654944 11.285781 -1.586593 1.350035 9.506660 -1.258664 
-11.865703 0.000000 539.660641 180.000000 -22.511981 180.000000 -6.787184 86.506326 -2.967783 82.196493 -3.362526 179.294884 -178.907714 -3.011305 161.679638 -27.101472 -0.258694 -5.978602 95.990290 2.431754 -14.886819 21.454551 0.003090 -0.000000 123.572045 18.467196 -158.510270 -48.752216 -3.902263 -1.229900 76.320277 1.803301 3.234636 21.454559 -0.003108 -0.000018 8.586754 1.127587 -1.865769 7.124371 2.367522 -3.659470 6.806668 2.345530 -3.673677 22.257584 12.434625 -9.195839 -23.432536 1.933635 -10.618158 -104.638476 -88.141716 -77.230892 1.883019 41.980311 15.445060 -74.887352 -16.410699 2.796509 1.406208 -5.849959 38.859902 -169.519662 77.587322 12.135919 11.766941 -48.205384 -9.076161 -52.448273 11.374439 -1.618987 1.458011 9.865578 -1.095865 
-14.190942 0.000000 539.657035 180.000000 -23.060573 180.000000 -6.533518 85.471817 -3.313096 83.078023 -3.917886 178.927780 -175.727872 -2.648499 161.489728 -25.757569 0.034117 -5.729944 97.231656 2.323124 -15.832899 21.454553 0.003088 -0.000000 124.016085 19.005999 -157.922156 -43.735340 -3.856788 -1.441778 76.045604 1.928296 3.147701 21.454560 -0.003108 -0.000018 8.679086 1.101798 -2.000031 7.306924 2.327308 -3.927398 6.989351 2.303705 -3.941352 22.264274 12.618222 -9.109376 -23.504655 1.732925 -10.438890 -102.692106 -88.449549 -79.156024 -0.332815 41.736635 14.124427 -74.878270 -16.382057 2.794057 0.981122 -5.593381 38.617861 -168.024893 77.573056 13.660903 13.801011 -48.562606 -9.899686 -53.125951 11.535780 -1.652327 1.344141 10.373654 -1.158977 
-16.553835 0.000000 539.638144 180.000000 -23.458408 180.000000 -6.307601 84.389350 -3.634933 83.836496 -4.539902 178.597784 -172.626074 -2.247408 161.908405 -24.369973 0.080396 -5.745296 98.154819 2.359934 -16.938052 21.454553 0.003090 0.000001 124.585762 19.292171 -157.430393 -38.714124 -3.900407 -1.204532 76.278463 2.012438 4.088198 21.454558 -0.003108 -0.000018 8.756084 1.047789 -2.092466 7.460696 2.227936 -4.113873 7.143236 2.203212 -4.127219 21.807512 12.767632 -9.140668 -23.196986 1.377745 -10.244083 -100.436253 -88.755343 -81.390058 -2.275763 41.546159 12.604739 -75.267879 -15.968038 2.781646 0.874454 -4.947499 38.793837 -164.879596 77.585590 16.870020 15.660048 -49.252507 -10.874474 -53.627108 11.768121 -1.684559 0.885513 10.912827 -1.295678 
-18.948301 0.000000 539.604905 180.000000 -23.714742 180.000000 -6.096853 83.262779 -3.868710 84.422009 -5.011988 178.390079 -169.719641 -2.181899 162.430709 -23.137558 -0.005563 -5.738741 98.897416 2.362451 -18.218874 21.454553 0.003093 0.000001 125.264261 19.261996 -156.761174 -34.007972 -4.132271 -0.669425 76.893210 1.927811 5.237538 21.454557 -0.003108 -0.000017 8.794265 1.023493 -2.157827 7.536526 2.184981 -4.245243 7.219140 2.159466 -4.258325 21.129626 12.832239 -9.234779 -22.723819 0.969456 -10.062030 -96.388227 -89.092943 -85.414169 -3.797421 41.505505 11.183353 -75.976428 -15.288468 2.763803 0.909610 -4.338220 39.179101 -161.072033 77.575644 20.754878 17.671584 -50.091951 -11.952416 -54.037403 11.937510 -1.710244 0.340661 11.364754 -1.725356 
-21.368257 0.000000 539.558256 180.000000 -23.837798 180.000000 -5.893712 82.108441 -3.957172 84.792808 -5.146679 178.427471 -167.131268 -2.728477 162.531890 -22.234997 -0.090793 -5.428029 99.560172 2.156009 -19.683192 21.454551 0.003095 0.000001 126.036040 18.883243 -155.747403 -30.004354 -4.592305 0.019275 77.746647 1.522355 5.686964 21.454557 -0.003108 -0.000016 8.774293 1.080640 -2.224961 7.493233 2.302699 -4.376216 7.175878 2.276394 -4.390005 20.513438 12.755793 -9.318362 -22.370086 0.627502 -9.914791 -84.830993 -89.446193 -96.946781 -4.816928 41.697596 10.162604 -76.875013 -14.496334 2.746488 0.841037 -4.177446 39.474384 -157.811587 77.563945 24.081404 20.139191 -50.915185 -13.091058 -54.434346 11.936175 -1.724181 -0.025616 11.631281 -2.695784 
-23.807622 0.000000 539.499132 180.000000 -23.834869 180.000000 -5.717673 80.994041 -3.918604 84.935061 -5.079917 178.808046 -164.975652 -3.740404 162.369538 -21.708197 -0.163058 -4.928457 99.850937 1.765359 -21.323774 21.454550 0.003096 0.000000 126.831025 18.278793 -154.989586 -27.251347 -5.140832 1.074906 78.981465 0.647202 5.438936 21.454558 -0.003108 -0.000016 8.703295 1.187429 -2.348729 7.344687 2.521106 -4.618541 7.027392 2.493341 -4.633639 19.991154 12.612032 -9.366594 -22.325252 0.307878 -9.762766 -61.876031 -89.591055 -119.890936 -5.456870 42.007486 9.540405 -77.910478 -13.637539 2.730675 0.644663 -4.332665 39.488017 -155.514909 77.567359 26.424079 22.849569 -51.799228 -14.295409 -54.718000 11.893536 -1.730691 -0.299178 11.702196 -4.220577 
-26.260313 0.000000 539.428471 180.000000 -23.712431 180.000000 -5.583669 80.000058 -3.785774 84.852165 -4.949346 179.553552 -163.317689 -5.047517 162.223065 -21.531485 -0.236865 -4.412194 99.437598 1.227999 -23.072423 21.454552 0.003094 -0.000000 127.566836 17.565232 -155.093883 -26.150491 -5.598967 2.653280 80.428023 -0.723684 4.643315 21.454558 -0.003108 -0.000016 8.590683 1.304451 -2.561204 7.109813 2.763297 -5.038978 6.792674 2.733000 -5.055517 19.540943 12.491485 -9.378099 -22.646161 -0.033540 -9.577629 -57.672552 -89.446207 -124.107915 -5.805007 42.333530 9.280048 -79.038800 -12.732149 2.715791 0.331939 -4.557128 39.140123 -154.256232 77.567005 27.707613 25.536363 -52.824208 -15.618162 -54.755557 11.948743 -1.735406 -0.596357 11.579388 -6.134448 
-28.720248 0.000000 539.347208 180.000000 -23.476252 180.000000 -5.465514 79.206703 -3.574575 84.580096 -4.588218 -179.583771 -162.015598 -6.691602 162.076127 -21.523558 -0.343934 -3.877025 98.228569 0.504691 -24.652692 21.454555 0.003092 -0.000000 128.098858 16.610504 -155.958504 -26.320229 -5.808516 4.218065 80.349183 -2.153911 3.225268 21.454558 -0.003109 -0.000017 8.428976 1.446023 -2.777317 6.774670 3.051563 -5.467291 6.457685 3.018685 -5.485546 19.178403 12.422582 -9.389021 -22.950376 -0.280064 -9.440687 -58.802145 -89.245842 -122.997332 -5.646272 42.859395 9.472433 -80.176359 -11.804283 2.699907 -0.187041 -4.682562 38.687126 -153.501956 77.426555 28.479965 28.176906 -53.812429 -17.197674 -54.458282 12.042861 -1.731774 -0.818225 11.242530 -7.783384 
-31.181345 0.000000 539.256282 180.000000 -23.131507 180.000000 -5.359471 78.689985 -3.305973 84.165276 -3.830151 -178.880748 -160.957619 -8.689982 161.791671 -21.559730 -0.466391 -3.289571 96.130583 -0.461997 -25.836334 21.454556 0.003091 -0.000000 128.259422 15.269691 -157.289824 -27.254984 -5.713935 5.218853 77.194667 -3.324426 1.211402 21.454559 -0.003110 -0.000017 8.220361 1.632323 -2.903384 6.345333 3.420684 -5.715658 6.028359 3.386303 -5.736128 18.895011 12.411751 -9.424861 -22.880047 -0.346379 -9.411479 -53.471049 -89.166007 -128.334657 -4.855529 43.762761 10.161202 -81.223194 -10.901390 2.682941 -0.947544 -4.610323 38.374542 -152.801467 77.019700 29.204631 30.687851 -54.586262 -19.017191 -53.761754 12.098724 -1.712259 -0.838348 10.701199 -8.609754 
-33.637522 0.000000 539.156628 180.000000 -22.682886 180.000000 -5.394432 78.509361 -3.035755 83.637141 -2.811155 -178.452123 -160.374440 -10.775102 161.091596 -21.892681 -0.355253 -2.665383 92.818206 -1.782173 -26.808065 21.454555 0.003092 -0.000000 127.838969 13.639893 -158.735318 -28.786818 -5.590734 5.814821 71.769967 -4.475978 -1.087421 21.454560 -0.003109 -0.000017 8.021851 1.852041 -2.927512 5.937337 3.851038 -5.759697 5.620209 3.816379 -5.782763 18.547737 12.441341 -9.431644 -22.620330 -0.422774 -9.334424 -53.515740 -89.110371 -128.295565 -4.025488 44.937367 11.013210 -82.051533 -10.160413 2.666201 -1.650860 -4.449144 38.075155 -152.501989 76.414895 29.525874 32.614832 -55.267717 -20.481421 -52.655167 12.164727 -1.678667 -0.611551 10.062844 -8.922276 
-36.082697 0.000000 539.049183 180.000000 -22.134702 180.000000 -5.644261 78.645041 -2.798897 83.059963 -1.700984 -178.344122 -160.464510 -12.717156 159.848922 -22.920529 0.213983 -2.041172 88.188981 -3.480710 -27.542061 21.454552 0.003094 0.000002 126.750709 11.882099 -160.075453 -30.961223 -5.573988 6.365787 65.853087 -5.814846 -3.230066 21.454559 -0.003107 -0.000017 7.895830 2.092946 -2.866573 5.676488 4.323130 -5.631409 5.359071 4.289232 -5.657334 18.040205 12.490418 -9.349012 -22.451437 -0.699357 -9.054790 -66.749997 -88.961007 -115.078600 -3.669049 46.253627 11.697563 -82.567614 -9.687885 2.654651 -2.005786 -4.338453 37.604919 -152.922774 75.750730 29.112745 33.483177 -56.043194 -21.051230 -51.086647 12.307380 -1.633397 -0.129999 9.453244 -9.121343 
-38.510788 0.000000 538.934883 180.000000 -21.490988 180.000000 -5.823824 78.776787 -2.533341 82.689378 -0.497396 -178.497526 -160.994785 -14.698200 158.590668 -25.268609 1.119248 -1.482043 83.234966 -4.998100 -26.934211 21.454550 0.003096 0.000002 125.505340 10.202697 -161.728484 -34.304313 -4.903284 7.245191 62.824236 -7.073793 -4.476836 21.454558 -0.003106 -0.000017 7.870859 2.370451 -2.772491 5.618293 4.871845 -5.431971 5.300492 4.839136 -5.461227 17.597004 12.546450 -9.170594 -22.487047 -1.087340 -8.635235 -80.737952 -88.808045 -101.102230 -3.075912 47.696453 12.475856 -82.839019 -9.378989 2.645826 -2.087273 -4.327918 36.907862 -153.874024 75.241244 28.152105 33.105362 -56.932299 -20.975799 -48.786876 12.540379 -1.578067 0.525502 8.985302 -9.108548 
